<svg width="60" height="60" viewBox="0 0 60 60" fill="none" xmlns="http://www.w3.org/2000/svg">
<g clip-path="url(#clip0)">
<path d="M14.7377 2.24507L42.5113 30.0161L14.7377 57.7871C14.2372 58.3052 14.2516 59.1309 14.7697 59.6314C15.2752 60.1195 16.0765 60.1195 16.5819 59.6314L45.2763 30.937C45.7855 30.4277 45.7855 29.602 45.2763 29.0926L16.5819 0.398193C16.0814 -0.119896 15.2558 -0.134201 14.7376 0.366158C14.2195 0.866638 14.2052 1.69226 14.7055 2.21047C14.716 2.22135 14.7267 2.23199 14.7376 2.2425L14.7377 2.24507Z" fill="#FFC107"/>
<path d="M43.2185 30.0161L42.8649 30.3696L15.0974 58.1398C14.7991 58.4515 14.7999 58.9436 15.1 59.2544L43.2185 30.0161ZM43.2185 30.0161L42.8649 29.6625M43.2185 30.0161L42.8649 29.6625M42.8649 29.6625L15.0913 1.89151L15.0914 1.89146M42.8649 29.6625L15.0914 1.89146M15.0914 1.89146L15.0852 1.88547M15.0914 1.89146L15.0852 1.88547M15.0852 1.88547C14.7657 1.57687 14.7568 1.06779 15.0654 0.748161C15.374 0.428684 15.8831 0.419819 16.2028 0.728432C16.2095 0.734921 16.216 0.741493 16.2226 0.748268L16.2225 0.748318M15.0852 1.88547L16.2225 0.748318M16.2225 0.748318L16.2286 0.754326M16.2225 0.748318L16.2286 0.754326M16.2286 0.754326L44.923 29.4487L44.9235 29.4492M16.2286 0.754326L44.9235 29.4492M44.9235 29.4492C45.0744 29.5996 45.1594 29.8037 45.16 30.0169C45.1604 30.2304 45.0759 30.4352 44.9252 30.5862M44.9235 29.4492L44.9252 30.5862M44.9252 30.5862L16.2345 59.2769C15.915 59.5827 15.4079 59.5731 15.1 59.2545L44.9252 30.5862Z" fill="black" stroke="white"/>
</g>
<defs>
<clipPath id="clip0">
<rect width="60" height="60" fill="white" transform="translate(0 60) rotate(-90)"/>
</clipPath>
</defs>
</svg>
