<svg width="32" height="60" viewBox="0 0 32 60" fill="none" xmlns="http://www.w3.org/2000/svg">
<path d="M2.78152 29.9839L3.13506 29.6304L30.9026 1.86021C31.2009 1.5485 31.2001 1.05642 30.9 0.74557L2.78152 29.9839ZM2.78152 29.9839L3.13509 30.3375M2.78152 29.9839L3.13509 30.3375M3.13509 30.3375L30.9087 58.1085L30.9086 58.1085M3.13509 30.3375L30.9086 58.1085M30.9086 58.1085L30.9148 58.1145M30.9086 58.1085L30.9148 58.1145M30.9148 58.1145C31.2343 58.4231 31.2432 58.9322 30.9346 59.2518C30.626 59.5713 30.1169 59.5802 29.7972 59.2716C29.7905 59.2651 29.784 59.2585 29.7774 59.2517L29.7775 59.2517M30.9148 58.1145L29.7775 59.2517M29.7775 59.2517L29.7714 59.2457M29.7775 59.2517L29.7714 59.2457M29.7714 59.2457L1.077 30.5513L1.07647 30.5508M29.7714 59.2457L1.07647 30.5508M1.07647 30.5508C0.925646 30.4004 0.840607 30.1963 0.839987 29.9831C0.83961 29.7696 0.924084 29.5648 1.07479 29.4138M1.07647 30.5508L1.07479 29.4138M1.07479 29.4138L29.7655 0.723114C30.085 0.417283 30.5921 0.426924 30.9 0.745503L1.07479 29.4138Z" fill="black" stroke="white"/>
</svg>
