<svg width="21" height="21" viewBox="0 0 21 21" fill="none" xmlns="http://www.w3.org/2000/svg">
<path d="M6.76598 13.5763H6.76694C6.76774 13.5763 6.76854 13.5762 6.76934 13.5762H17.9238C18.1984 13.5762 18.4399 13.394 18.5154 13.13L20.9763 4.51669C21.0293 4.33099 20.9921 4.13136 20.876 3.97723C20.7597 3.8231 20.5778 3.73242 20.3848 3.73242H5.34709L4.9073 1.75326C4.84465 1.47176 4.59503 1.27148 4.30664 1.27148H0.615234C0.275414 1.27148 0 1.5469 0 1.88672C0 2.22654 0.275414 2.50195 0.615234 2.50195H3.81317C3.89104 2.85267 5.91779 11.9732 6.03442 12.4979C5.38058 12.7821 4.92188 13.4341 4.92188 14.1914C4.92188 15.2091 5.74988 16.0371 6.76758 16.0371H17.9238C18.2636 16.0371 18.5391 15.7617 18.5391 15.4219C18.5391 15.0821 18.2636 14.8066 17.9238 14.8066H6.76758C6.4284 14.8066 6.15234 14.5306 6.15234 14.1914C6.15234 13.8527 6.42744 13.5771 6.76598 13.5763ZM19.5691 4.96289L17.4597 12.3457H7.26105L5.62042 4.96289H19.5691Z" fill="#333333"/>
<path d="M6.15228 17.8828C6.15228 18.9005 6.98029 19.7285 7.99799 19.7285C9.01569 19.7285 9.84369 18.9005 9.84369 17.8828C9.84369 16.8651 9.01569 16.0371 7.99799 16.0371C6.98029 16.0371 6.15228 16.8651 6.15228 17.8828ZM7.99799 17.2676C8.33717 17.2676 8.61322 17.5436 8.61322 17.8828C8.61322 18.222 8.33717 18.498 7.99799 18.498C7.65881 18.498 7.38275 18.222 7.38275 17.8828C7.38275 17.5436 7.65881 17.2676 7.99799 17.2676Z" fill="#333333"/>
<path d="M14.8475 17.8828C14.8475 18.9005 15.6755 19.7285 16.6932 19.7285C17.7109 19.7285 18.5389 18.9005 18.5389 17.8828C18.5389 16.8651 17.7109 16.0371 16.6932 16.0371C15.6755 16.0371 14.8475 16.8651 14.8475 17.8828ZM16.6932 17.2676C17.0324 17.2676 17.3084 17.5436 17.3084 17.8828C17.3084 18.222 17.0324 18.498 16.6932 18.498C16.354 18.498 16.0779 18.222 16.0779 17.8828C16.0779 17.5436 16.354 17.2676 16.6932 17.2676Z" fill="#333333"/>
</svg>
