<svg width="19" height="20" viewBox="0 0 19 20" fill="none" xmlns="http://www.w3.org/2000/svg">
<path d="M17.5352 18.0783L12.4101 12.6834C13.3821 11.4201 13.9673 9.81413 13.9673 8.06558C13.9673 4.01213 10.8344 0.714355 6.98362 0.714355C3.13286 0.714355 0 4.01213 0 8.06558C0 12.119 3.13289 15.4168 6.98366 15.4168C8.64478 15.4168 10.1705 14.8008 11.3706 13.7776L16.4957 19.1725C16.6393 19.3236 16.872 19.3236 17.0155 19.1725L17.5352 18.6254C17.6787 18.4743 17.6787 18.2293 17.5352 18.0783ZM6.98366 13.8692C3.9434 13.8692 1.47025 11.2659 1.47025 8.06558C1.47025 4.8653 3.9434 2.26199 6.98366 2.26199C10.0239 2.26199 12.4971 4.8653 12.4971 8.06558C12.4971 11.2659 10.0239 13.8692 6.98366 13.8692Z" fill="#333333"/>
</svg>
