<svg width="568" height="568" viewBox="0 0 568 568" fill="none" xmlns="http://www.w3.org/2000/svg">
  <path
    d="M391.202 135.632L387.679 141.533L360.298 125.193L363.101 120.499L392.637 110.052L375.815 100.012L379.338 94.111L405.69 109.837L402.887 114.532L373.396 125.005L391.202 135.632Z"
    fill="white" />
  <path
    d="M412.463 153.097L399.877 141.77L392.249 145.413L385.821 139.627L422.296 123.417L428.492 128.994L416.22 166.986L409.637 161.062L412.463 153.097ZM414.774 146.561L419.814 132.323L406.177 138.823L414.774 146.561Z"
    fill="white" />
  <path
    d="M454.8 158.754C456.719 161.352 457.946 163.921 458.483 166.459C459.04 169.026 458.904 171.413 458.075 173.622C457.246 175.83 455.742 177.738 453.562 179.345C451.411 180.932 449.144 181.806 446.76 181.967C444.404 182.108 442.081 181.534 439.792 180.245C437.551 178.964 435.471 177.024 433.552 174.426L429.189 168.517L421.101 174.483L416.088 167.694L445.424 146.056L454.8 158.754ZM438.806 169.968C440.312 172.008 441.89 173.239 443.54 173.662C445.218 174.064 446.867 173.668 448.488 172.472C450.136 171.256 451.001 169.798 451.083 168.098C451.194 166.377 450.496 164.496 448.99 162.457L444.905 156.925L434.721 164.437L438.806 169.968Z"
    fill="white" />
  <path
    d="M453.488 214.311L446.362 198.955L437.914 199.309L434.274 191.466L474.194 190.883L477.703 198.442L451.486 228.556L447.758 220.524L453.488 214.311ZM458.182 209.208L468.413 198.096L453.314 198.719L458.182 209.208Z"
    fill="white" />
  <path
    d="M456.476 251.959L464.757 242.796L462.981 235.242L453.092 237.56L451.161 229.347L486.661 221.026L490.272 236.388C491.01 239.532 491.126 242.375 490.618 244.919C490.118 247.497 489.052 249.637 487.418 251.339C485.785 253.042 483.65 254.202 481.013 254.82C478.376 255.438 475.943 255.331 473.714 254.498C471.527 253.691 469.652 252.241 468.089 250.146L458.55 260.78L456.476 251.959ZM479.059 246.505C481.053 246.038 482.424 245.039 483.17 243.509C483.95 241.971 484.05 239.968 483.47 237.501L481.897 230.809L469.523 233.709L471.096 240.401C471.676 242.869 472.658 244.618 474.042 245.648C475.425 246.679 477.098 246.965 479.059 246.505Z"
    fill="white" />
  <path
    d="M467.238 287.35L466.746 270.433L458.841 267.429L458.59 258.788L495.514 273.988L495.756 282.316L459.779 299.649L459.521 290.801L467.238 287.35ZM473.566 284.513L487.354 278.336L473.23 272.957L473.566 284.513Z"
    fill="white" />
  <path
    d="M434.606 387.763L428.608 384.399L444.197 356.607L448.968 359.283L460.227 388.52L469.805 371.446L475.803 374.809L460.8 401.557L456.029 398.881L444.744 369.689L434.606 387.763Z"
    fill="white" />
  <path
    d="M417.708 409.417L428.696 396.546L424.846 389.019L430.458 382.445L447.655 418.47L442.246 424.807L403.92 413.533L409.667 406.801L417.708 409.417ZM424.308 411.557L438.683 416.223L431.813 402.765L424.308 411.557Z"
    fill="white" />
  <path
    d="M413.107 451.915C410.559 453.898 408.023 455.19 405.499 455.791C402.947 456.413 400.556 456.338 398.325 455.566C396.095 454.793 394.147 453.339 392.482 451.202C390.838 449.093 389.904 446.849 389.68 444.471C389.476 442.121 389.989 439.785 391.218 437.464C392.44 435.192 394.325 433.065 396.873 431.082L402.667 426.572L396.487 418.641L403.144 413.459L425.558 442.223L413.107 451.915ZM401.469 436.218C399.47 437.775 398.28 439.383 397.901 441.042C397.543 442.729 397.983 444.367 399.221 445.956C400.481 447.572 401.962 448.4 403.664 448.439C405.389 448.505 407.25 447.76 409.25 446.203L414.675 441.981L406.894 431.996L401.469 436.218Z"
    fill="white" />
  <path
    d="M357.578 451.958L372.75 444.454L372.176 436.021L379.925 432.188L381.547 472.064L374.077 475.759L343.28 450.314L351.216 446.388L357.578 451.958ZM362.803 456.521L374.182 466.467L373.167 451.395L362.803 456.521Z"
    fill="white" />
  <path
    d="M320.072 455.877L329.45 463.923L336.959 461.96L334.384 452.136L342.548 450.002L351.791 485.268L336.522 489.26C333.397 490.076 330.557 490.263 327.999 489.819C325.408 489.384 323.24 488.371 321.495 486.782C319.751 485.192 318.535 483.088 317.848 480.468C317.161 477.848 317.206 475.414 317.98 473.166C318.73 470.96 320.132 469.051 322.186 467.437L311.304 458.17L320.072 455.877ZM326.113 478.307C326.632 480.289 327.667 481.634 329.216 482.341C330.774 483.082 332.78 483.132 335.232 482.491L341.884 480.752L338.662 468.459L332.01 470.198C329.558 470.839 327.834 471.864 326.839 473.273C325.844 474.681 325.602 476.359 326.113 478.307Z"
    fill="white" />
  <path
    d="M285.109 467.538L302.014 466.617L304.81 458.642L313.445 458.172L299.219 495.454L290.896 495.907L272.612 460.396L281.455 459.914L285.109 467.538ZM288.114 473.789L294.654 487.41L299.661 473.16L288.114 473.789Z"
    fill="white" />
  <path
    d="M184.108 437.772L187.308 431.689L215.529 446.53L212.985 451.369L184.056 463.394L201.395 472.511L198.195 478.594L171.034 464.311L173.579 459.473L202.462 447.424L184.108 437.772Z"
    fill="white" />
  <path
    d="M161.701 421.315L174.87 431.958L182.293 427.915L189.02 433.351L153.459 451.476L146.976 446.236L157.211 407.644L164.099 413.212L161.701 421.315ZM159.74 427.965L155.464 442.451L168.736 435.235L159.74 427.965Z"
    fill="white" />
  <path
    d="M119.099 417.902C117.048 415.407 115.689 412.905 115.021 410.398C114.331 407.864 114.343 405.472 115.056 403.224C115.77 400.975 117.173 398.992 119.265 397.274C121.331 395.577 123.55 394.587 125.922 394.302C128.268 394.039 130.617 394.492 132.97 395.66C135.275 396.824 137.452 398.653 139.503 401.148L144.167 406.823L151.935 400.446L157.293 406.966L129.121 430.097L119.099 417.902ZM134.489 405.872C132.879 403.914 131.239 402.766 129.569 402.43C127.873 402.115 126.246 402.596 124.69 403.874C123.107 405.174 122.319 406.675 122.325 408.377C122.304 410.102 123.099 411.944 124.709 413.902L129.075 419.215L138.855 411.185L134.489 405.872Z"
    fill="white" />
  <path
    d="M117.498 362.379L125.398 377.352L133.817 376.567L137.852 384.215L98.0144 386.833L94.1251 379.462L118.77 348.05L122.902 355.882L117.498 362.379ZM113.07 367.715L103.42 379.334L118.467 377.942L113.07 367.715Z"
    fill="white" />
  <path
    d="M112.733 325.76L104.965 335.36L107.15 342.807L116.898 339.953L119.274 348.049L84.2821 358.293L79.8385 343.15C78.9293 340.052 78.6588 337.219 79.027 334.651C79.3855 332.049 80.3336 329.854 81.8714 328.066C83.4092 326.277 85.4778 325.002 88.0772 324.241C90.6766 323.48 93.1118 323.454 95.3829 324.164C97.6109 324.851 99.562 326.197 101.236 328.203L110.181 317.064L112.733 325.76ZM90.4823 332.437C88.5161 333.012 87.2023 334.084 86.5407 335.653C85.8458 337.231 85.8552 339.236 86.5689 341.669L88.5048 348.265L100.702 344.695L98.766 338.098C98.0523 335.666 96.9765 333.973 95.5386 333.019C94.1006 332.065 92.4152 331.871 90.4823 332.437Z"
    fill="white" />
  <path
    d="M99.9161 290.444L101.282 307.313L109.331 309.905L110.029 318.522L72.37 305.249L71.6976 296.944L106.73 277.775L107.444 286.6L99.9161 290.444ZM93.7436 293.604L80.2941 300.485L94.6765 305.128L93.7436 293.604Z"
    fill="white" />
  <path
    d="M126.549 189.304L132.72 192.34L118.655 220.933L113.746 218.519L100.925 189.931L92.2842 207.498L86.1129 204.462L99.649 176.943L104.558 179.358L117.402 207.899L126.549 189.304Z"
    fill="white" />
  <path
    d="M142.71 165.828L132.425 179.266L136.669 186.578L131.416 193.442L112.324 158.382L117.387 151.767L156.259 160.984L150.879 168.013L142.71 165.828ZM136.006 164.043L121.403 160.149L128.98 173.223L136.006 164.043Z"
    fill="white" />
  <path
    d="M145.124 122.998C147.565 120.885 150.03 119.463 152.52 118.731C155.036 117.977 157.428 117.928 159.695 118.583C161.963 119.239 163.984 120.59 165.758 122.637C167.509 124.658 168.559 126.85 168.907 129.213C169.232 131.55 168.842 133.909 167.736 136.291C166.633 138.623 164.862 140.846 162.421 142.959L156.87 147.765L163.454 155.363L157.076 160.885L133.195 133.325L145.124 122.998ZM157.563 138.069C159.479 136.41 160.583 134.742 160.876 133.065C161.145 131.362 160.62 129.749 159.301 128.227C157.959 126.678 156.437 125.929 154.735 125.979C153.009 126.002 151.189 126.843 149.273 128.502L144.076 133.001L152.366 142.568L157.563 138.069Z"
    fill="white" />
  <path
    d="M199.629 120.503L184.891 128.826L185.926 137.215L178.399 141.466L174.596 101.737L181.851 97.6396L213.995 121.362L206.287 125.716L199.629 120.503ZM194.162 116.232L182.256 106.923L184.095 121.917L194.162 116.232Z"
    fill="white" />
  <path
    d="M237.302 114.233L227.5 106.71L220.109 109.08L223.216 118.749L215.181 121.325L204.029 86.614L219.057 81.7961C222.132 80.8103 224.959 80.4693 227.536 80.7733C230.147 81.0667 232.367 81.9594 234.196 83.4515C236.025 84.9436 237.353 86.9789 238.182 89.5574C239.01 92.1359 239.099 94.5688 238.448 96.8559C237.819 99.0993 236.524 101.083 234.561 102.806L245.933 111.466L237.302 114.233ZM230.048 92.1651C229.421 90.2147 228.315 88.9285 226.729 88.3065C225.133 87.6515 223.128 87.7109 220.714 88.4847L214.167 90.5836L218.054 102.683L224.601 100.584C227.015 99.8101 228.68 98.6928 229.597 97.2322C230.514 95.7715 230.664 94.0825 230.048 92.1651Z"
    fill="white" />
  <path
    d="M272.269 100.57L255.434 102.36L253.053 110.469L244.455 111.384L256.74 73.4178L265.028 72.5364L285.117 107.059L276.311 107.996L272.269 100.57ZM268.946 94.4819L261.713 81.2159L257.447 95.7049L268.946 94.4819Z"
    fill="white" />
</svg>